<svg
   width="1084"
   height="1083.9999"
   viewBox="0 0 1084 1083.9999"
   version="1.1"
   id="svg1"
   xml:space="preserve"
   xmlns="http://www.w3.org/2000/svg"
   xmlns:svg="http://www.w3.org/2000/svg"><defs
     id="defs1" /><g
     id="layer1"
     transform="translate(2847.6836,-1971.2823)"><rect
       style="opacity:1;fill:#cfcfcf;fill-opacity:1;stroke:none;stroke-width:4.33724;stroke-opacity:1"
       id="rect79"
       width="13472"
       height="5780.6685"
       x="-10048"
       y="-1300.6685" /><rect
       style="fill:#f9f9f9;stroke:#ffffff;stroke-width:4;stroke-opacity:1"
       id="rect80"
       width="1080"
       height="1080"
       x="-2845.6836"
       y="1973.2823" /><g
       id="g80"
       transform="matrix(2.5382793,0,0,2.5382793,-3661.089,1578.9956)"><path
         style="fill:#000000;stroke:#000000;stroke-width:8;stroke-opacity:1"
         d="M 503.39829,511.28306 C 421.68427,482.2607 379.81158,393.95353 410.20165,314.73656 c 14.82292,-38.6385 53.62427,-75.90836 93.74724,-90.04704 100.74684,-28.33686 202.84586,49.99847 148.7355,110.18222 -21.15816,23.53296 -45.89726,26.43883 -75.43471,8.86063 C 508.34668,302.72713 492.29831,402 548.94889,402 c 32.37308,0 62.37097,-46.81501 103.86162,-0.8898 21.24514,23.51579 14.19189,50.52451 8.15008,61.56852 -28.33074,51.78666 -114.55515,63.87909 -157.5623,48.60434 z m 131.5506,-167.80023 c 16.02676,-8.24678 24.50568,-21.57763 26.36098,-41.44566 1.05432,-11.29028 0.54976,-14.17905 -4.15674,-23.79876 -9.87098,-20.17555 -35.62254,-39.77823 -63.20424,-48.11251 -28.73733,-8.68346 -69.53512,-7.44984 -95.33975,2.88283 -23.82389,9.53955 -52.66025,30.01796 -52.66025,37.39716 0,3.80035 2.91918,3.22809 14.56649,-2.8555 63.55792,-33.19745 97.44754,67.46132 134.9616,79.57793 9.00391,2.90817 30.61431,0.9123 39.47191,-3.64549 z"
         id="path79" /></g></g></svg>
