<?xml version="1.0" encoding="UTF-8" standalone="no"?>

<svg
   width="307.11435"
   height="408.91504"
   viewBox="0 0 307.11435 408.91504"
   version="1.1"
   id="svg1"
   xml:space="preserve"
   xmlns="http://www.w3.org/2000/svg"
   xmlns:svg="http://www.w3.org/2000/svg"><defs
     id="defs1" /><g
     id="layer1"
     transform="translate(-463.93869,-3784.6299)"><g
       id="g13"
       transform="translate(-0.075455,-79.746405)"><g
         id="g14"><g
           id="g423"
           transform="matrix(0.47787966,0,0,0.47787966,231.35375,3603.9005)"><g
             id="g419"
             transform="matrix(0.21020003,0,0,0.16570288,848.73143,693.69656)"><path
               style="fill:#f2af29;fill-opacity:1;stroke:#f2af29;stroke-width:0.790214;stroke-opacity:1"
               d="m 668.42263,639.644 c 0,0 -189.96931,-505.73667 -229.73262,-474.12813 -39.7633,31.60854 -124.25576,92.60757 -117.96138,158.04271 14.99756,155.91192 347.694,316.08542 347.694,316.08542"
               id="path416" /><path
               style="fill:#f2af29;fill-opacity:1;stroke:#f2af29;stroke-width:0.790214;stroke-opacity:1"
               d="m 692.306,639.644 c 0,0 189.96931,-505.73667 229.73262,-474.12813 C 961.80192,197.12441 1046.2944,258.12344 1040,323.55858 1025.0024,479.4705 692.306,639.644 692.306,639.644"
               id="path417" /><path
               style="fill:#f2af29;fill-opacity:1;stroke:#f2af29;stroke-width:0.790214;stroke-opacity:1"
               d="m 667.69404,643.91458 c 0,0 -189.96935,505.73672 -229.73266,474.12812 C 398.19808,1086.4342 313.7056,1025.4351 320,960 334.9976,804.08808 667.69404,643.91458 667.69404,643.91458"
               id="path418" /><path
               style="fill:#f2af29;fill-opacity:1;stroke:#f2af29;stroke-width:0.790214;stroke-opacity:1"
               d="m 692.30596,643.91458 c 0,0 189.96935,505.73672 229.73266,474.12812 C 961.80192,1086.4342 1046.2944,1025.4351 1040,960 1025.0024,804.08808 692.30596,643.91458 692.30596,643.91458"
               id="path419" /><circle
               style="fill:#f2af29;fill-opacity:1;stroke:#f2af29;stroke-width:2;stroke-opacity:1"
               id="circle419"
               cx="680"
               cy="640"
               r="40" /></g><g
             id="g422"
             transform="translate(-14.70019,349.2433)"><g
               id="g421"><path
                 style="font-weight:bold;font-size:192px;font-family:'Brush Script MT';-inkscape-font-specification:'Brush Script MT Bold';white-space:pre;fill:#f2af29;stroke:#f2af29;stroke-width:7.10735"
                 d="M 833.16274,794.08956 934.77564,642.5031 c -23.0988,0.88842 -47.4193,4.22 -72.9614,9.99472 -25.542,5.77473 -143.826,66.34214 -162.03859,73.00528 l -8.61992,-9.18227 c 0,0 143.93541,-155.39998 276.26931,-158.43962 68.85246,0 116.60496,14.65891 143.25756,43.97673 9.5505,10.21682 16.8799,22.87679 21.9883,37.97991 5.3305,14.88102 7.9958,29.65098 7.9958,44.30988 0,33.31571 -6.9963,63.63301 -20.9889,90.95188 -13.7705,27.09677 -33.5378,50.63987 -59.3019,70.6293 -25.7642,19.98942 -56.0815,35.31465 -90.95186,45.97567 -34.8705,10.43893 -73.0725,15.65838 -114.6061,15.65838 -7.3294,0 -22.3215,-1.33262 -44.9762,-3.99788 l -29.9841,54.63765 c 3.1095,4.6642 4.6642,8.43998 4.6642,11.32734 0,6.88525 -1.5547,12.65997 -4.6642,17.32417 -4.4421,6.66314 -10.3279,15.43646 -17.6573,26.31956 -7.3294,10.8832 -12.3268,18.1014 -14.992,21.6551 -2.4432,3.5536 -5.3306,6.6631 -8.6621,9.3284 -3.1095,2.6652 -6.219,3.9978 -9.3284,3.9978 -6.44106,0 -10.55,-1.9989 -12.32684,-5.9968 -1.77683,-3.7758 -2.66525,-9.1063 -2.66525,-15.9915 0,-9.7726 4.77525,-25.2087 14.32579,-46.30868 9.7726,-21.32206 24.4315,-49.52942 43.9767,-84.62197 -10.4389,-3.99788 -18.5457,-9.21734 -24.3205,-15.65838 -5.7747,-6.44104 -8.6621,-12.77102 -8.6621,-18.98995 0,-13.77049 7.8848,-26.54151 23.6542,-38.31306 15.7694,-11.77155 39.0904,-21.09995 69.9629,-27.9852 z m 34.6484,8.99524 -18.99,31.98308 c 8.44,0.44421 15.8805,0.88842 22.3215,1.33263 6.6632,0.44421 12.2158,0.66631 16.6579,0.66631 38.8683,0 72.5172,-5.21946 100.9466,-15.65838 28.65146,-10.43892 51.30616,-23.32099 67.96396,-38.64622 16.88,-15.54733 29.0957,-31.09466 36.6473,-46.64199 7.5516,-15.54732 11.3273,-28.54044 11.3273,-38.97937 0,-14.43681 -5.7747,-25.76415 -17.3241,-33.98202 -11.5495,-8.21788 -28.2073,-13.77049 -49.9736,-16.65785 -21.5441,-3.10947 -49.41826,-4.6642 -83.62236,-4.6642 0.4442,2.44315 0.6663,5.44156 0.6663,8.99524 0,11.54944 -6.1079,26.76361 -18.3236,45.64251 l -57.9694,90.95188 43.64361,-4.99735 c 3.55369,0 5.3305,1.66578 5.3305,4.99735 0,2.88736 -2.88731,4.88631 -8.6621,5.99683 z"
                 id="path420"
                 aria-label="CP" /><path
                 style="font-weight:bold;font-size:192px;font-family:'Brush Script MT';-inkscape-font-specification:'Brush Script MT Bold';white-space:pre;fill:#f2af29;stroke:#f2af29;stroke-width:7.10735"
                 d="m 796.6261,662.79739 c -31.0946,27.0967 -61.523,47.8637 -91.285,62.3005 -29.762,14.6589 -58.52461,21.9884 -86.2877,21.9884 -23.98731,0 -44.64305,-4.7755 -61.96722,-14.326 -17.10206,-9.5505 -30.09518,-23.5431 -38.97937,-41.9778 -8.66209,-18.2125 -12.99313,-39.8676 -12.99313,-64.9654 0,-19.7673 3.10947,-40.6452 9.3284,-62.6336 6.44104,-22.2105 15.65838,-44.532 27.65204,-66.9646 11.99365,-22.6546 26.65256,-45.9756 43.97673,-69.9629 17.54627,-23.9873 38.09096,-49.1962 61.63405,-75.6267 C 672.1364,323.31041 696.2348,299.76731 720,280 c 23.7652,-19.98943 45.3094,-35.64781 64.6325,-46.97515 19.3231,-11.32734 37.2025,-19.76732 53.6383,-25.31994 16.6578,-5.55261 30.4283,-8.32892 41.3114,-8.32892 11.1052,0 20.5447,2.66525 28.3184,7.99577 7.7736,5.33051 13.7704,13.10417 17.9904,23.32099 29.2085,70.71515 -48.0836,168.73164 -83.2892,208.22314 -25.542,28.6515 -49.9736,52.0836 -73.2945,70.2961 -23.0989,17.9905 -39.7568,26.9858 -49.9736,26.9858 -6.8853,0 -13.3263,-2.6653 -19.3231,-7.9958 -5.7748,-5.5526 -8.6621,-11.7715 -8.6621,-18.6568 0,-12.66 6.6631,-27.9852 19.9894,-45.9756 13.5484,-17.9905 28.2073,-34.4263 43.9768,-49.3073 15.9915,-15.1031 25.542,-22.6547 28.6515,-22.6547 1.5547,0 2.3321,0.6663 2.3321,1.999 0,1.9989 -1.2216,5.4415 -3.6648,10.3278 -2.221,4.8863 -3.3315,7.8848 -3.3315,8.9953 0,1.7768 0.6663,2.6652 1.9989,2.6652 3.7758,0 14.6589,-10.1057 32.6494,-30.3173 17.9905,-20.2115 34.4262,-42.42196 49.3072,-66.63138 15.1031,-24.43151 22.6547,-44.42094 22.6547,-59.96827 0,-6.44103 -1.4437,-11.32734 -4.331,-14.65891 -2.6653,-3.55367 -6.7742,-5.33051 -12.3269,-5.33051 -15.5473,0 -39.2014,12.65997 -70.9624,37.9799 -31.5388,25.09784 -63.9661,57.19197 -97.2819,96.28237 -33.0936,38.8684 -60.7456,79.0693 -82.95607,120.6029 -22.21047,41.5335 -33.31571,78.0698 -33.31571,109.6087 0,18.2126 2.66526,33.4266 7.99577,45.6423 5.55262,12.2158 13.54839,21.6554 23.98731,28.3186 10.66102,6.6631 23.43204,9.9947 38.31306,9.9947 32.20514,0 68.74144,-12.5491 109.60874,-37.6469 z"
                 id="path421"
                 aria-label="CP" /></g></g></g></g></g></g></svg>
