<svg
   width="1611.02"
   height="844.64185"
   viewBox="0 0 1611.02 844.64185"
   version="1.1"
   id="svg1"
   xml:space="preserve"
   xmlns="http://www.w3.org/2000/svg"
   xmlns:svg="http://www.w3.org/2000/svg"><defs
     id="defs1" /><g
     id="layer1"
     transform="translate(709.69147,-2959.3738)"><g
       id="g35"
       transform="matrix(1.7247937,0,0,1.7247937,-1412.4456,2552.328)"><g
         id="g34"
         transform="translate(5.1215836,-24.666121)"><g
           id="g33"><g
             id="g32"
             transform="translate(6.0140978,45.97561)"><path
               style="fill:#000000;stroke:#000000;stroke-width:8;stroke-opacity:1"
               d="M 503.39829,511.28306 C 421.68427,482.2607 379.81158,393.95353 410.20165,314.73656 c 14.82292,-38.6385 53.62427,-75.90836 93.74724,-90.04704 100.74684,-28.33686 202.84586,49.99847 148.7355,110.18222 -21.15816,23.53296 -45.89726,26.43883 -75.43471,8.86063 C 508.34668,302.72713 492.29831,402 548.94889,402 c 32.37308,0 62.37097,-46.81501 103.86162,-0.8898 21.24514,23.51579 14.19189,50.52451 8.15008,61.56852 -28.33074,51.78666 -114.55515,63.87909 -157.5623,48.60434 z m 131.5506,-167.80023 c 16.02676,-8.24678 24.50568,-21.57763 26.36098,-41.44566 1.05432,-11.29028 0.54976,-14.17905 -4.15674,-23.79876 -9.87098,-20.17555 -35.62254,-39.77823 -63.20424,-48.11251 -28.73733,-8.68346 -69.53512,-7.44984 -95.33975,2.88283 -23.82389,9.53955 -52.66025,30.01796 -52.66025,37.39716 0,3.80035 2.91918,3.22809 14.56649,-2.8555 63.55792,-33.19745 97.44754,67.46132 134.9616,79.57793 9.00391,2.90817 30.61431,0.9123 39.47191,-3.64549 z"
               id="path31" /></g><path
             style="font-weight:bold;font-size:74.6667px;font-family:'Segoe UI';-inkscape-font-specification:'Segoe UI Bold';text-align:center;text-anchor:middle;white-space:pre;stroke-width:4"
             d="m -68.023469,783.75962 q -9.333338,0 -14.692716,-5.21355 -5.322919,-5.25 -5.322919,-14.21875 0,-9.26042 5.54167,-14.47397 5.541669,-5.25 14.984382,-5.25 9.296879,0 14.58334,5.25 5.286461,5.21355 5.286461,13.81772 0,9.29688 -5.468753,14.69271 -5.432294,5.39584 -14.911465,5.39584 z m 0.291667,-30.33335 q -4.083336,0 -6.343753,2.80729 -2.260418,2.8073 -2.260418,7.94792 0,10.75522 8.677087,10.75522 8.276046,0 8.276046,-11.04688 0,-10.46355 -8.348962,-10.46355 z m 64.09378,29.42189 h -11.520839 v -5.14063 h -0.145833 q -3.937502,6.05209 -11.557297,6.05209 -7.000004,0 -11.265631,-4.92188 -4.265627,-4.95834 -4.265627,-13.81771 0,-9.26043 4.703127,-14.83855 4.703128,-5.57813 12.322923,-5.57813 7.218753,0 10.062505,5.17709 h 0.145833 V 727.5773 H -3.638022 Z M -14.940111,764.6919 v -2.80729 q 0,-3.64584 -2.114584,-6.05209 -2.114584,-2.40625 -5.505211,-2.40625 -3.828127,0 -5.97917,3.02604 -2.151042,2.98959 -2.151042,8.23959 0,4.92188 2.078126,7.58334 2.078126,2.66146 5.760419,2.66146 3.500002,0 5.687503,-2.8073 2.223959,-2.80729 2.223959,-7.4375 z m 54.541695,2.77084 H 15.247406 q 0.583333,8.13021 10.244796,8.13021 6.161462,0 10.82813,-2.91667 v 8.3125 q -5.177085,2.77084 -13.453131,2.77084 -9.041671,0 -14.036465,-4.9948 -4.994794,-5.03125 -4.994794,-14 0,-9.29688 5.3958359,-14.72918 5.3958361,-5.43229 13.2708401,-5.43229 8.16667,0 12.614589,4.84896 4.484377,4.84896 4.484377,13.16146 z m -10.682297,-7.07292 q 0,-8.02084 -6.489586,-8.02084 -2.770835,0 -4.812502,2.29687 -2.00521,2.29688 -2.44271,5.72397 z m 54.067725,22.45834 H 71.466173 v -5.14063 H 71.32034 q -3.937502,6.05209 -11.557297,6.05209 -7.000003,0 -11.26563,-4.92188 -4.265628,-4.95834 -4.265628,-13.81771 0,-9.26043 4.703128,-14.83855 4.703127,-5.57813 12.322922,-5.57813 7.218754,0 10.062505,5.17709 h 0.145833 V 727.5773 H 82.987012 Z M 71.684924,764.6919 v -2.80729 q 0,-3.64584 -2.114585,-6.05209 -2.114584,-2.40625 -5.505211,-2.40625 -3.828127,0 -5.979169,3.02604 -2.151043,2.98959 -2.151043,8.23959 0,4.92188 2.078126,7.58334 2.078126,2.66146 5.760419,2.66146 3.500002,0 5.687503,-2.8073 2.22396,-2.80729 2.22396,-7.4375 z"
             id="path32"
             transform="matrix(3.7496267,0,0,3.6601392,1025.1869,-2301.2233)"
            /></g><path
           style="font-weight:bold;font-size:74.6667px;font-family:'Segoe UI';-inkscape-font-specification:'Segoe UI Bold';text-align:center;text-anchor:middle;white-space:pre;stroke-width:4"
           d="m -72.635451,764.83773 v 18.01043 h -11.776047 v -52.28128 h 18.447926 q 19.760426,0 19.760426,16.66147 0,7.875 -5.687503,12.76042 -5.651044,4.84896 -15.130216,4.84896 z m 0,-25.22917 v 16.29688 h 4.630211 q 9.406254,0 9.406254,-8.23959 0,-8.05729 -9.406254,-8.05729 z m 62.161489,43.2396 h -10.901047 v -5.35938 h -0.145833 q -3.75521,6.27084 -11.119797,6.27084 -5.432295,0 -8.567713,-3.0625 -3.098959,-3.09896 -3.098959,-8.23959 0,-10.86459 12.869797,-12.54167 l 10.135422,-1.34896 q 0,-6.12501 -6.63542,-6.12501 -6.671878,0 -12.687506,3.97396 v -8.67708 q 2.406251,-1.23959 6.562503,-2.1875 4.19271,-0.94792 7.619795,-0.94792 15.968758,0 15.968758,15.9323 z m -10.82813,-15.16667 v -2.51563 l -6.781253,0.875 q -5.614586,0.72917 -5.614586,5.06771 0,1.96875 1.348959,3.24479 1.385417,1.23959 3.718751,1.23959 3.244794,0 5.286461,-2.22396 2.041668,-2.26042 2.041668,-5.6875 z m 44.296891,-11.77605 q -2.078126,-1.13021 -4.848961,-1.13021 -3.75521,0 -5.869794,2.77083 -2.114585,2.73438 -2.114585,7.47397 v 17.82813 H -1.3593795 V 745.51481 H 10.161459 v 6.92708 h 0.145834 q 2.734376,-7.58333 9.843754,-7.58333 1.822918,0 2.843752,0.4375 z m 30.078142,26.50522 q -2.552085,1.34896 -7.692712,1.34896 -12.177089,0 -12.177089,-12.65105 V 754.0096 h -6.052087 v -8.49479 h 6.052087 v -8.0573 l 11.48438,-3.28125 v 11.33855 h 8.385421 v 8.49479 H 44.68752 v 15.09376 q 0,5.83334 4.630211,5.83334 1.822917,0 3.75521,-1.0573 z m 4.046876,-0.54688 v -9.33333 q 2.843751,1.71354 5.651044,2.55208 2.843751,0.83854 5.359377,0.83854 3.062502,0 4.812503,-0.83854 1.786459,-0.83854 1.786459,-2.55208 0,-1.09375 -0.802084,-1.82292 -0.802084,-0.72917 -2.078126,-1.27604 -1.239584,-0.54688 -2.734376,-0.98438 -1.494792,-0.4375 -2.88021,-0.98437 -2.223959,-0.83855 -3.937502,-1.78646 -1.677084,-0.98438 -2.843751,-2.26042 -1.130209,-1.27604 -1.750001,-2.95313 -0.583333,-1.67708 -0.583333,-3.97396 0,-3.13542 1.348958,-5.39583 1.385418,-2.26042 3.645836,-3.6823 2.296876,-1.45833 5.213544,-2.11458 2.953126,-0.69271 6.125003,-0.69271 2.479167,0 5.031252,0.40104 2.552085,0.36458 5.031252,1.09375 v 8.89584 q -2.187501,-1.27604 -4.703127,-1.89584 -2.479168,-0.65625 -4.885419,-0.65625 -1.130209,0 -2.151043,0.21875 -0.984375,0.1823 -1.75,0.58334 -0.765626,0.36458 -1.203126,0.98437 -0.4375,0.58334 -0.4375,1.34896 0,1.02084 0.65625,1.75 0.656251,0.72917 1.713543,1.27605 1.057292,0.51041 2.333334,0.94791 1.312501,0.40104 2.588543,0.83855 2.296876,0.80208 4.156252,1.75 1.859376,0.94791 3.171877,2.22396 1.348958,1.27604 2.041667,2.98958 0.729167,1.71354 0.729167,4.08334 0,3.31771 -1.458334,5.6875 -1.421876,2.33333 -3.828127,3.82812 -2.369792,1.45834 -5.505211,2.11459 -3.098959,0.69271 -6.453128,0.69271 -6.161461,0 -11.411463,-1.89584 z"
           id="path33"
           transform="matrix(2.3449634,0,0,2.4316355,1123.0393,-1155.4488)"
          /></g></g></g></svg>
